<?xml version="1.0" encoding="utf-8"?>
<!-- Generator: Adobe Illustrator 27.0.0, SVG Export Plug-In . SVG Version: 6.00 Build 0)  -->
<svg version="1.1" id="Layer_1" xmlns="http://www.w3.org/2000/svg" xmlns:xlink="http://www.w3.org/1999/xlink" x="0px" y="0px"
	 viewBox="0 0 1440 320" style="enable-background:new 0 0 1440 320;" xml:space="preserve">
<path d="M1440,256l-16-37.3C1408,181,1376,107,1344,96s-64,43-96,42.7c-32,0.3-64-53.7-96-58.7s-64,37-96,37.3
	C1024,117,992,75,960,64s-64,11-96,16s-64-5-96,5.3c-32,10.7-64,42.7-96,80c-32,37.7-64,79.7-96,80c-32-0.3-64-42.3-96-64
	c-32-21.3-64-21.3-96-5.3s-64,48-96,64s-64,16-96-21.3C160,181,128,107,96,85.3C64,64,32,96,16,112L0,128V0h16c16,0,48,0,80,0
	s64,0,96,0s64,0,96,0s64,0,96,0s64,0,96,0s64,0,96,0s64,0,96,0s64,0,96,0s64,0,96,0s64,0,96,0s64,0,96,0s64,0,96,0s64,0,96,0
	s64,0,96,0s64,0,80,0h16V256z"/>
</svg>
