<?xml version="1.0" encoding="utf-8"?>
<!-- Generator: Adobe Illustrator 27.0.0, SVG Export Plug-In . SVG Version: 6.00 Build 0)  -->
<svg version="1.1" id="Layer_1" xmlns="http://www.w3.org/2000/svg" xmlns:xlink="http://www.w3.org/1999/xlink" x="0px" y="0px"
	 viewBox="0 0 169 943.4" style="enable-background:new 0 0 169 943.4;" xml:space="preserve">
<style type="text/css">
	.st0{fill:#F7941D;}
	.st1{filter:url(#Adobe_OpacityMaskFilter);}
	.st2{opacity:0.3;mask:url(#SVGID_1_);}
</style>
<g>
	<g>
		<path class="st0" d="M-58.4-81.9v1157.3h96.3c-3.4-8.3-40.6-121.6-39.1-132c9.9-65.2,50.5-62.4,89.7-118.9
			c35.8-51.6,10.4-107.4-19.3-172.7c-36.5-80-79.5-174.4-24.7-293.3C101.4,235.1,85.4,201,68.2,164.2C53.1,132,44.7,76.5,37.9,0
			c-0.4-4.6,31.1-80.4,32.6-85L-58.4-81.9z"/>
	</g>
	<defs>
		<filter id="Adobe_OpacityMaskFilter" filterUnits="userSpaceOnUse" x="-58.4" y="-85" width="164.5" height="1160.4">
			
				<feColorMatrix  type="matrix" values="-1 0 0 0 1  0 -1 0 0 1  0 0 -1 0 1  0 0 0 1 0" color-interpolation-filters="sRGB" result="source"/>
		</filter>
	</defs>
	<mask maskUnits="userSpaceOnUse" x="-58.4" y="-85" width="164.5" height="1160.4" id="SVGID_1_">
		<g class="st1">
			
				<image style="overflow:visible;" width="170" height="1166" xlink:href="7AF05D475DCBB312.jpg"  transform="matrix(1 0 0 1 -61 -88)">
			</image>
		</g>
	</mask>
	<g class="st2">
		<path d="M-58.4-81.9v1157.3h96.3c-3.4-8.3-40.6-121.6-39.1-132c9.9-65.2,50.5-62.4,89.7-118.9c35.8-51.6,10.4-107.4-19.3-172.7
			c-36.5-80-79.5-174.4-24.7-293.3C101.4,235.1,85.4,201,68.2,164.2C53.1,132,44.7,76.5,37.9,0c-0.4-4.6,31.1-80.4,32.6-85
			L-58.4-81.9z"/>
	</g>
</g>
</svg>
