<?xml version="1.0" encoding="utf-8"?>
<!-- Generator: Adobe Illustrator 27.0.0, SVG Export Plug-In . SVG Version: 6.00 Build 0)  -->
<svg version="1.1" id="Layer_1" xmlns="http://www.w3.org/2000/svg" xmlns:xlink="http://www.w3.org/1999/xlink" x="0px" y="0px"
	 viewBox="0 0 102 1551.8" style="enable-background:new 0 0 102 1551.8;" xml:space="preserve">
<style type="text/css">
	.st0{fill-rule:evenodd;clip-rule:evenodd;fill:#3C0066;}
	.st1{filter:url(#Adobe_OpacityMaskFilter);}
	.st2{opacity:0.25;mask:url(#SVGID_1_);}
	.st3{fill-rule:evenodd;clip-rule:evenodd;}
	.st4{display:none;fill-rule:evenodd;clip-rule:evenodd;fill:#3C0066;}
</style>
<g>
	<g>
		<path class="st0" d="M120.6-38.4L40-39.2L40.5,0c-0.4,1.1-0.8,2.2-1.1,3.3c-27,77.9-52.8,152.5-6.6,269.9
			c49.8,126.4,23,178-2.5,226.9c-24.9,48-48.6,93.4,2.5,204.3C91.7,832.3,83.7,873,72.2,932c-10.5,53.6-24,122.4,7,285.4
			c12.1,63.8,19.1,119.6,22.9,166.5h46.5L138.4,0L120.6-38.4z"/>
	</g>
	<defs>
		<filter id="Adobe_OpacityMaskFilter" filterUnits="userSpaceOnUse" x="2.5" y="-39.2" width="146.1" height="1423.1">
			
				<feColorMatrix  type="matrix" values="-1 0 0 0 1  0 -1 0 0 1  0 0 -1 0 1  0 0 0 1 0" color-interpolation-filters="sRGB" result="source"/>
		</filter>
	</defs>
	<mask maskUnits="userSpaceOnUse" x="2.5" y="-39.2" width="146.1" height="1423.1" id="SVGID_1_">
		<g class="st1">
			
				<image style="overflow:visible;" width="151" height="1429" xlink:href="E629FF826C8449B4.jpg"  transform="matrix(1 0 0 1 0 -42.2)">
			</image>
		</g>
	</mask>
	<g class="st2">
		<path class="st3" d="M120.6-38.4L40-39.2L40.5,0c-0.4,1.1-0.8,2.2-1.1,3.3c-27,77.9-52.8,152.5-6.6,269.9
			c49.8,126.4,23,178-2.5,226.9c-24.9,48-48.6,93.4,2.5,204.3C91.7,832.3,83.7,873,72.2,932c-10.5,53.6-24,122.4,7,285.4
			c12.1,63.8,19.1,119.6,22.9,166.5h46.5L138.4,0L120.6-38.4z"/>
	</g>
</g>
<path class="st4" d="M102,0H40.5c-0.4,1.1-0.8,2.2-1.1,3.3c-27,77.9-52.8,152.5-6.6,269.9c49.8,126.4,23,178-2.5,226.9
	c-24.9,48-48.6,93.4,2.5,204.3C91.7,832.3,83.7,873,72.2,932c-10.5,53.6-24,122.4,7,285.4c12.1,63.8,19.1,119.6,22.9,166.5V0H102z"
	/>
</svg>
