<?xml version="1.0" encoding="utf-8"?>
<!-- Generator: Adobe Illustrator 27.0.0, SVG Export Plug-In . SVG Version: 6.00 Build 0)  -->
<svg version="1.1" id="Layer_1" xmlns="http://www.w3.org/2000/svg" xmlns:xlink="http://www.w3.org/1999/xlink" x="0px" y="0px"
	 viewBox="0 0 169 1398" style="enable-background:new 0 0 169 1398;" xml:space="preserve">
<style type="text/css">
	.st0{fill:#F7941D;}
	.st1{filter:url(#Adobe_OpacityMaskFilter);}
	.st2{opacity:0.25;mask:url(#SVGID_1_);}
	.st3{display:none;fill:#F7941D;}
</style>
<g>
	<g>
		<path class="st0" d="M44.5,329.7C153.3,92.2,85.4,49.7,51.2,0l2.2-63.2l-110.7,4.7v1315.2H0C6.5,1124.4,25,930.8,77,817
			C143.5,671.5-61.5,561,44.5,329.7z"/>
	</g>
	<defs>
		<filter id="Adobe_OpacityMaskFilter" filterUnits="userSpaceOnUse" x="-57.3" y="-63.2" width="161" height="1319.9">
			
				<feColorMatrix  type="matrix" values="-1 0 0 0 1  0 -1 0 0 1  0 0 -1 0 1  0 0 0 1 0" color-interpolation-filters="sRGB" result="source"/>
		</filter>
	</defs>
	<mask maskUnits="userSpaceOnUse" x="-57.3" y="-63.2" width="161" height="1319.9" id="SVGID_1_">
		<g class="st1">
			
				<image style="overflow:visible;" width="166" height="1325" xlink:href="9ACC0DA0E66B79B5.jpg"  transform="matrix(1 0 0 1 -60 -66)">
			</image>
		</g>
	</mask>
	<g class="st2">
		<path d="M44.5,329.7C153.3,92.2,85.4,49.7,51.2,0l2.2-63.2l-110.7,4.7v1315.2H0C6.5,1124.4,25,930.8,77,817
			C143.5,671.5-61.5,561,44.5,329.7z"/>
	</g>
</g>
<path class="st3" d="M44.5,329.7C153.3,92.2,85.4,49.7,51.2,0H0v1256.6C6.5,1124.4,25,930.8,77,817C143.5,671.5-61.5,561,44.5,329.7
	z"/>
</svg>
