<?xml version="1.0" encoding="utf-8"?>
<!-- Generator: Adobe Illustrator 27.0.0, SVG Export Plug-In . SVG Version: 6.00 Build 0)  -->
<svg version="1.1" id="Layer_1" xmlns="http://www.w3.org/2000/svg" xmlns:xlink="http://www.w3.org/1999/xlink" x="0px" y="0px"
	 viewBox="0 0 117.4 885.7" style="enable-background:new 0 0 117.4 885.7;" xml:space="preserve">
<style type="text/css">
	.st0{fill:#3C0066;}
	.st1{fill:none;stroke:#000000;stroke-miterlimit:10;}
	.st2{filter:url(#Adobe_OpacityMaskFilter);}
	.st3{opacity:0.3;mask:url(#SVGID_1_);}
</style>
<g>
	<g>
		<path class="st0" d="M345,854.6v-1007L257.6-142c0,0-348.4,69-209.3,279c82.1,124,49,206.2,16,288.3
			c-27.4,68.2-54.8,136.3-16,228.2c34.7,82.1,72.4,146.4,69.2,201.1H345z"/>
		<path class="st1" d="M345,854.6v-1007L257.6-142c0,0-348.4,69-209.3,279c82.1,124,49,206.2,16,288.3
			c-27.4,68.2-54.8,136.3-16,228.2c34.7,82.1,72.4,146.4,69.2,201.1H345z"/>
	</g>
	<defs>
		<filter id="Adobe_OpacityMaskFilter" filterUnits="userSpaceOnUse" x="14.9" y="-153" width="330.6" height="1008.1">
			
				<feColorMatrix  type="matrix" values="-1 0 0 0 1  0 -1 0 0 1  0 0 -1 0 1  0 0 0 1 0" color-interpolation-filters="sRGB" result="source"/>
		</filter>
	</defs>
	<mask maskUnits="userSpaceOnUse" x="14.9" y="-153" width="330.6" height="1008.1" id="SVGID_1_">
		<g class="st2">
			
				<image style="overflow:visible;" width="336" height="1013" xlink:href="A8FA4AAE12B3C57.jpg"  transform="matrix(1 0 0 1 12.4236 -155)">
			</image>
		</g>
	</mask>
	<g class="st3">
		<path d="M345,854.6v-1007L257.6-142c0,0-348.4,69-209.3,279c82.1,124,49,206.2,16,288.3c-27.4,68.2-54.8,136.3-16,228.2
			c34.7,82.1,72.4,146.4,69.2,201.1H345z"/>
		<path class="st1" d="M345,854.6v-1007L257.6-142c0,0-348.4,69-209.3,279c82.1,124,49,206.2,16,288.3
			c-27.4,68.2-54.8,136.3-16,228.2c34.7,82.1,72.4,146.4,69.2,201.1H345z"/>
	</g>
</g>
</svg>
