<?xml version="1.0" encoding="utf-8"?>
<!-- Generator: Adobe Illustrator 27.0.0, SVG Export Plug-In . SVG Version: 6.00 Build 0)  -->
<svg version="1.1" id="Layer_1" xmlns="http://www.w3.org/2000/svg" xmlns:xlink="http://www.w3.org/1999/xlink" x="0px" y="0px"
	 viewBox="0 0 1080 99.1" style="enable-background:new 0 0 1080 99.1;" xml:space="preserve">
<style type="text/css">
	.st0{fill:none;}
	.st1{display:none;fill:none;}
</style>
<path class="st0" d="M912,54.9c-45,32-92.5-77.8-263.5-15.5c-88.9,32.4-277.8-32.8-336,0c-114.3,64.3-155,34.9-155,34.9
	S82.5,28.6,0,39.4l-113-24.5v142l1267,6l-9-157l-65,22.7C1008.3,44.6,992.5-2.2,912,54.9z"/>
<path class="st1" d="M157.5,54.3c0,0,40.7,29.4,155-34.9c58.2-32.8,247.1,32.4,336,0C819.5-42.9,867,66.9,912,34.9
	c80.5-57.1,96.3-10.3,168-26.3v-207.7H0V19.4C82.5,8.6,157.5,54.3,157.5,54.3z"/>
</svg>
