<?xml version="1.0" encoding="utf-8"?>
<!-- Generator: Adobe Illustrator 27.0.0, SVG Export Plug-In . SVG Version: 6.00 Build 0)  -->
<svg version="1.1" id="Layer_1" xmlns="http://www.w3.org/2000/svg" xmlns:xlink="http://www.w3.org/1999/xlink" x="0px" y="0px"
	 viewBox="0 0 1080 98.4" style="enable-background:new 0 0 1080 98.4;" xml:space="preserve">
<style type="text/css">
	.st0{display:none;fill:#46B1E5;}
	.st1{fill:#FFFFFF;}
	.st2{filter:url(#Adobe_OpacityMaskFilter);}
	.st3{opacity:0.25;mask:url(#SVGID_1_);}
</style>
<path class="st0" d="M1080,98.4V74.6C987.5,6.8,926.7,28.5,894.5,52.2c-46.5,34.2-118.4,64.2-246,22.4c-133.5-43.8-191.4-31.5-226,0
	C379,114.1,235,86,194,67.2C102,25,34.1,90.5,0,86.6v11.7h1080V98.4z"/>
<g>
	<g>
		<path class="st1" d="M-53-50.5V88l53,0.2c34.1,3.9,102-61.6,194-19.4c41,18.8,185,46.9,228.5,7.4c34.6-31.5,92.5-43.8,226,0
			C776.1,118,848,88,894.5,53.8c32.2-23.7,93-45.4,185.5,22.4l81,1.8V-50.5H-53z"/>
	</g>
	<defs>
		<filter id="Adobe_OpacityMaskFilter" filterUnits="userSpaceOnUse" x="-53" y="-50.5" width="1214" height="147">
			
				<feColorMatrix  type="matrix" values="-1 0 0 0 1  0 -1 0 0 1  0 0 -1 0 1  0 0 0 1 0" color-interpolation-filters="sRGB" result="source"/>
		</filter>
	</defs>
	<mask maskUnits="userSpaceOnUse" x="-53" y="-50.5" width="1214" height="147" id="SVGID_1_">
		<g class="st2">
			
				<image style="overflow:visible;" width="1218" height="152" xlink:href="C16E3BD7D988F1C0.jpg"  transform="matrix(1 0 0 1 -55 -52.5898)">
			</image>
		</g>
	</mask>
	<g class="st3">
		<path d="M-53-50.5V88l53,0.2c34.1,3.9,102-61.6,194-19.4c41,18.8,185,46.9,228.5,7.4c34.6-31.5,92.5-43.8,226,0
			C776.1,118,848,88,894.5,53.8c32.2-23.7,93-45.4,185.5,22.4l81,1.8V-50.5H-53z"/>
	</g>
</g>
</svg>
